# xmcd
#
# Track frame offsets:
#	150
#	15067
#	25783
#	46530
#	68147
#	87491
#	106098
#	123127
#	134843
#	146251
#	160169
#	180895
#
# Disc length: 2613 seconds
#
# Revision: 3
# Processed by: cddbd v1.5.2PL0 Copyright (c) Steve Scherf et al.
# Submitted via: audiograbber 1.83.01
#
DISCID=850a330c
DTITLE=Ringenberg, Jason - All over creation
DYEAR=2002
DGENRE=Country
TTITLE0=Honky tonk maniac from mars (with Hamell On Trial)
TTITLE1=I dreamed my baby came home (with Kristi Rose and Fats Kaplin)
TTITLE2=Bible and a gun (with Steve Earle)
TTITLE3=Too high to see (with Tommy Womack)
TTITLE4=James Dean's car (with Todd Snider)
TTITLE5=Camille (with Swan Dive)
TTITLE6=One less heartache (with The Wildhearts)
TTITLE7=Mother of earth (with Kristi Rose and Fats Kaplin)
TTITLE8=Don't come home drinkin' (with lovin' on your mind) (with BR549)
TTITLE9=Sun don't shine (with Paul Burch)
TTITLE10=Erin's seed (with Lambchop)
TTITLE11=Last train to Memphis (with George Bradfute)
EXTD=
EXTT0=
EXTT1=
EXTT2=
EXTT3=
EXTT4=
EXTT5=
EXTT6=
EXTT7=
EXTT8=
EXTT9=
EXTT10=
EXTT11=
PLAYORDER=
